# xmcd
# 
# Track frame offsets:
#     150
#     15630
#     33312
#     50844
#     74829
#     91034
#     113349
#     132994
#     152601
#     172702
#     192674
#     214596
# 
# Disc length: 3114
# 
# Revision: 0
# Processed by: cddbd v1.5.2PL0 Copyright (c) Steve Scherf et al.
# Submitted via: fre:ac v1.0.31
# 
DISCID=9c0c280c
DTITLE=Big Daddy Weave - When The Light Comes
DYEAR=0
DGENRE=Country
TTITLE0=Alive - Big Daddy Weave
TTITLE1=This Is What We Live For - Big Daddy Weave
TTITLE2=Turn On The Light - Big Daddy Weave
TTITLE3=I Know - Big Daddy Weave
TTITLE4=What I've Got - Big Daddy Weave
TTITLE5=The Name Of Jesus - Big Daddy Weave
TTITLE6=I Want To Tell The World - Big Daddy Weave
TTITLE7=Pursuit - Big Daddy Weave
TTITLE8=Your Love Changes Everything - Big Daddy Weave
TTITLE9=Walking In The Light Of Your Love - Big Daddy Weave
TTITLE10=All Things New - Big Daddy Weave
TTITLE11=Fly - Big Daddy Weave
EXTD=
EXTT0=
EXTT1=
EXTT2=
EXTT3=
EXTT4=
EXTT5=
EXTT6=
EXTT7=
EXTT8=
EXTT9=
EXTT10=
EXTT11=
PLAYORDER=
